<?xml version="1.0" standalone="yes"?>
<svg xmlns="http://www.w3.org/2000/svg" width="860" height="708">
<path style="fill:#73c951; stroke:none;" d="M424 41L424 68L411 68L411 81L424 81L424 94L451 94L451 108L437 108L437 134L424 134L424 148L411 148L411 161L424 161L424 174L437 174L437 188L411 188L411 201L424 201L424 214L437 214L437 228L424 228L424 241L437 241L437 228L451 228L451 214L437 214L437 201L464 201L464 228L477 228L477 241L464 241L464 254L451 254L451 281L464 281L464 294L451 294L451 308L464 308L464 321L477 321L477 334L517 334L517 348L504 348L504 374L531 374L531 388L544 388L544 401L517 401L517 414L504 414L504 428L517 428L517 414L531 414L531 428L544 428L544 441L517 441L517 454L531 454L531 468L544 468L544 454L557 454L557 468L571 468L571 481L584 481L584 468L597 468L597 494L611 494L611 508L624 508L624 481L637 481L637 494L651 494L651 481L637 481L637 454L624 454L624 441L611 441L611 428L584 428L584 414L557 414L557 401L571 401L571 388L597 388L597 361L571 361L571 348L557 348L557 334L584 334L584 321L557 321L557 308L571 308L571 294L557 294L557 281L531 281L531 268L544 268L544 254L557 254L557 241L544 241L544 228L557 228L557 214L544 214L544 228L531 228L531 188L517 188L517 174L504 174L504 161L517 161L517 148L491 148L491 121L477 121L477 108L464 108L464 94L477 94L477 81L491 81L491 68L477 68L477 81L464 81L464 94L451 94L451 81L437 81L437 41L424 41z"/>
<path style="fill:#263d34; stroke:none;" d="M384 68L384 81L397 81L397 68L384 68M397 81L397 94L384 94L384 108L371 108L371 121L384 121L384 134L357 134L357 148L371 148L371 161L357 161L357 174L344 174L344 188L331 188L331 174L304 174L304 188L317 188L317 214L331 214L331 228L317 228L317 254L304 254L304 268L317 268L317 281L304 281L304 308L291 308L291 321L277 321L277 348L264 348L264 361L291 361L291 374L277 374L277 388L291 388L291 401L277 401L277 414L264 414L264 428L251 428L251 454L224 454L224 481L211 481L211 494L197 494L197 508L211 508L211 521L224 521L224 534L237 534L237 521L251 521L251 508L264 508L264 534L251 534L251 561L264 561L264 548L277 548L277 534L291 534L291 521L304 521L304 534L331 534L331 521L357 521L357 534L397 534L397 614L384 614L384 628L371 628L371 641L357 641L357 654L384 654L384 668L411 668L411 654L464 654L464 668L491 668L491 641L477 641L477 614L464 614L464 601L451 601L451 588L437 588L437 561L424 561L424 548L411 548L411 534L424 534L424 521L437 521L437 534L464 534L464 548L477 548L477 534L464 534L464 521L477 521L477 508L491 508L491 521L504 521L504 534L517 534L517 548L544 548L544 534L597 534L597 521L571 521L571 508L544 508L544 521L531 521L531 494L544 494L544 481L517 481L517 468L504 468L504 454L491 454L491 428L477 428L477 414L491 414L491 401L464 401L464 428L451 428L451 414L437 414L437 401L411 401L411 374L424 374L424 388L451 388L451 361L437 361L437 348L424 348L424 334L411 334L411 321L397 321L397 308L424 308L424 321L437 321L437 308L424 308L424 294L397 294L397 281L384 281L384 308L357 308L357 294L371 294L371 281L344 281L344 254L357 254L357 268L384 268L384 254L371 254L371 241L384 241L384 228L411 228L411 214L384 214L384 201L371 201L371 188L397 188L397 174L384 174L384 148L397 148L397 121L424 121L424 94L411 94L411 81L397 81z"/>
<path style="fill:#418141; stroke:none;" d="M411 81L411 94L424 94L424 81L411 81M424 94L424 121L397 121L397 148L384 148L384 174L397 174L397 188L371 188L371 201L384 201L384 214L411 214L411 228L384 228L384 241L371 241L371 254L384 254L384 268L357 268L357 254L344 254L344 281L371 281L371 294L357 294L357 308L384 308L384 281L397 281L397 294L424 294L424 308L437 308L437 321L424 321L424 308L397 308L397 321L411 321L411 334L424 334L424 348L437 348L437 361L451 361L451 388L424 388L424 374L411 374L411 401L437 401L437 414L451 414L451 428L464 428L464 401L491 401L491 414L477 414L477 428L491 428L491 454L504 454L504 468L517 468L517 481L544 481L544 494L531 494L531 521L544 521L544 508L571 508L571 521L597 521L597 548L624 548L624 534L664 534L664 521L637 521L637 508L611 508L611 494L597 494L597 468L584 468L584 481L571 481L571 468L557 468L557 454L544 454L544 468L531 468L531 454L517 454L517 441L544 441L544 428L531 428L531 414L517 414L517 428L504 428L504 414L517 414L517 401L544 401L544 388L531 388L531 374L504 374L504 348L517 348L517 334L477 334L477 321L464 321L464 308L451 308L451 294L464 294L464 281L451 281L451 254L464 254L464 241L477 241L477 228L464 228L464 201L437 201L437 214L451 214L451 228L437 228L437 241L424 241L424 228L437 228L437 214L424 214L424 201L411 201L411 188L437 188L437 174L424 174L424 161L411 161L411 148L424 148L424 134L437 134L437 108L451 108L451 94L424 94z"/>
<path style="fill:#f7f7f7; stroke:none;" d="M451 108L451 121L464 121L464 108L451 108z"/>
<path style="fill:#418141; stroke:none;" d="M424 148L424 161L437 161L437 148L424 148M477 148L477 161L451 161L451 174L477 174L477 161L491 161L491 148L477 148M491 188L491 201L504 201L504 214L517 214L517 201L504 201L504 188L491 188M357 214L357 228L344 228L344 241L357 241L357 228L371 228L371 214L357 214M504 228L504 254L517 254L517 268L531 268L531 254L517 254L517 228L504 228M477 241L477 268L491 268L491 241L477 241z"/>
<path style="fill:#263d34; stroke:none;" d="M397 254L397 268L411 268L411 254L397 254M424 268L424 281L437 281L437 268L424 268z"/>
<path style="fill:#418141; stroke:none;" d="M531 268L531 281L544 281L544 268L531 268M504 281L504 294L517 294L517 308L531 308L531 294L517 294L517 281L504 281M544 294L544 308L557 308L557 294L544 294M317 308L317 321L344 321L344 308L317 308M557 308L557 321L571 321L571 308L557 308M304 348L304 361L317 361L317 374L331 374L331 388L344 388L344 348L304 348M371 348L371 374L397 374L397 361L384 361L384 348L371 348z"/>
<path style="fill:#73c951; stroke:none;" d="M464 348L464 374L477 374L477 388L491 388L491 361L477 361L477 348L464 348z"/>
<path style="fill:#418141; stroke:none;" d="M557 374L557 388L571 388L571 374L557 374M571 388L571 401L557 401L557 414L571 414L571 401L584 401L584 428L597 428L597 401L584 401L584 388L571 388M317 401L317 414L304 414L304 428L291 428L291 414L277 414L277 428L264 428L264 441L277 441L277 428L291 428L291 441L304 441L304 428L317 428L317 414L331 414L331 401L317 401z"/>
<path style="fill:#f7f7f7; stroke:none;" d="M571 401L571 414L584 414L584 401L571 401z"/>
<path style="fill:#418141; stroke:none;" d="M251 414L251 428L264 428L264 414L251 414M357 414L357 428L371 428L371 454L384 454L384 428L371 428L371 414L357 414M544 414L544 428L557 428L557 414L544 414M597 441L597 454L611 454L611 441L597 441M317 454L317 468L304 468L304 481L291 481L291 494L317 494L317 468L331 468L331 454L317 454M411 454L411 468L424 468L424 481L437 481L437 494L451 494L451 481L437 481L437 454L411 454M451 454L451 468L464 468L464 481L477 481L477 468L464 468L464 454L451 454M504 481L504 494L517 494L517 481L504 481M624 481L624 494L637 494L637 481L624 481M477 508L477 521L464 521L464 534L504 534L504 521L491 521L491 508L477 508z"/>
<path style="fill:#725634; stroke:none;" d="M424 521L424 534L411 534L411 548L424 548L424 561L437 561L437 588L451 588L451 601L464 601L464 614L477 614L477 561L464 561L464 534L437 534L437 521L424 521z"/>
<path style="fill:#263d34; stroke:none;" d="M611 548L611 561L624 561L624 548L611 548z"/>
<path style="fill:#725634; stroke:none;" d="M411 588L411 601L424 601L424 588L411 588M424 614L424 628L437 628L437 614L424 614M477 628L477 641L491 641L491 628L477 628M491 654L491 668L517 668L517 654L491 654z"/>
</svg>
